{"title":"(18+) Angoor (2005) Hindi Movie DvDRip -AshishRocks- { DAKU RG }","uid":9455152,"size":545876405,"categoryP":"video","categoryS":"movies","magnet":"?xt=urn:btih:3171286ceac9d494733b811e6f09b5d97ce89fe8&amp;dn=%2818%2B%29+Angoor+%282005%29+Hindi+Movie+DvDRip+-AshishRocks-+%7B+DAKU+RG+%7D&amp;tr=udp%3A%2F%2Ftracker.openbittorrent.com%3A80&amp;tr=udp%3A%2F%2Fopen.demonii.com%3A1337&amp;tr=udp%3A%2F%2Ftracker.coppersurfer.tk%3A6969&amp;tr=udp%3A%2F%2Fexodus.desync.com%3A6969","seeders":0,"leechers":3,"uploader":"ashish.p","files":2,"time":1389252749,"description":"General\n\nComplete name : (18+) Angoor (2005) Hindi Movie DvDRip -AshishRocks- { DAKU RG }\nFormat : MPEG-4\nFormat profile : Base Media\nCodec ID : isom\nFile size :\t521 MiB\nDuration :\t1h 46mn\nOverall bit rate : 682 Kbps\nWriting application :\tLavf54.29.104\n\nVideo\n\nID :\t1\nFormat : AVC\nFormat/Info : Advanced Video Codec\nFormat profile : &lt;a class=&quot;__cf_email__&quot; href=&quot;/cdn-cgi/l/email-protection&quot; data-cfemail=&quot;561b373f38161a657866&quot;&gt;[email&amp;#160;protected]&lt;/a&gt;&lt;script cf-hash='f9e31' type=&quot;text/javascript&quot;&gt;\n/* &lt;![CDATA[ */!function(){try{var t=&quot;currentScript&quot;in document?document.currentScript:function(){for(var t=document.getElementsByTagName(&quot;script&quot;),e=t.length;e--;)if(t[e].getAttribute(&quot;cf-hash&quot;))return t[e]}();if(t&amp;&amp;t.previousSibling){var e,r,n,i,c=t.previousSibling,a=c.getAttribute(&quot;data-cfemail&quot;);if(a){for(e=&quot;&quot;,r=parseInt(a.substr(0,2),16),n=2;a.length-n;n+=2)i=parseInt(a.substr(n,2),16)^r,e+=String.fromCharCode(i);e=document.createTextNode(e),c.parentNode.replaceChild(e,c)}}}catch(u){}}();/* ]]&gt; */&lt;/script&gt;\nFormat settings, CABAC :\tYes\nFormat settings, ReFrames : 3 frames\nCodec ID : avc1\nCodec ID/Info : Advanced Video Coding\nDuration :\t1h 46mn\nBit rate : 550 Kbps\nWidth : 600 pixels\nHeight : 480 pixels\nDisplay aspect ratio : 5:4\nFrame rate mode : Constant\nFrame rate : 25.000 fps\nColor space : YUV\nChroma subsampling : 4:2:0\nBit depth : 8 bits\nScan type : Progressive\nBits/(Pixel*Frame) :\t0.076\nStream size : 420 MiB (81%)\n\nAudio\n\nID : 2\nFormat : AAC\nFormat/Info : Advanced Audio Codec\nFormat profile : LC\nCodec ID : 40\nDuration :\t 1h 46mn\nBit rate mode :\tConstant\nBit rate : 126 Kbps\nChannel(s) : 2 channels\nChannel positions :\tFront: L R\nSampling rate : 44.1 KHz\nCompression mode : Lossy\nStream size : 95.9 MiB (18%)","torrent":{"xt":"urn:btih:3171286ceac9d494733b811e6f09b5d97ce89fe8","amp;dn":"%2818%2B%29+Angoor+%282005%29+Hindi+Movie+DvDRip+-AshishRocks-+%7B+DAKU+RG+%7D","amp;tr":["udp%3A%2F%2Ftracker.openbittorrent.com%3A80","udp%3A%2F%2Fopen.demonii.com%3A1337","udp%3A%2F%2Ftracker.coppersurfer.tk%3A6969","udp%3A%2F%2Fexodus.desync.com%3A6969"],"infoHash":"3171286ceac9d494733b811e6f09b5d97ce89fe8","infoHashBuffer":{"type":"Buffer","data":[49,113,40,108,234,201,212,148,115,59,129,30,111,9,181,217,124,232,159,232]},"announce":[],"urlList":[]}}